#!OML:ASF H:\Terrain\Walking\May29\JustinRory\Justin.ASF
:FULLY-SPECIFIED
:DEGREES
1
root 0.89673 17.4938 -6.62756 -1.60855 2.82609 1.08438
lowerback 4.15146 1.78402 -5.71091
upperback 0.475753 2.09785 -0.867801
thorax -2.01041 1.08848 2.17991
lowerneck -12.172 11.0853 -2.3128
upperneck 21.8913 18.2034 -8.52396
head 9.5873 7.42348 -0.332148
rclavicle -2.96935e-015 -9.93923e-015
rhumerus -6.13887 4.81118 -60.8554
rradius 97.9273
rwrist -34.7567
rhand -11.6645 26.5518
rfingers 7.12502
rthumb 14.3803 -2.93005
lclavicle -2.96935e-015 -9.93923e-015
lhumerus 0.598433 11.812 81.573
lradius 73.5559
lwrist 28.7119
lhand 1.94996 31.3157
lfingers 7.12502
lthumb 27.4567 59.3345
rfemur -26.0203 -9.43158 16.5008
rtibia 56.0025
rfoot -13.0043 -11.5615
rtoes 5.20196
lfemur -4.98706 -1.18818 -23.1735
ltibia 27.6085
lfoot -18.6115 2.62173
ltoes -12.9092
2
root 0.909 17.485 -6.50813 -1.35701 3.01691 2.29674
lowerback 4.17339 1.66117 -7.08513
upperback 0.444068 1.86326 -1.07337
thorax -2.07386 0.984153 2.74778
lowerneck -12.8813 11.3319 -2.40318
upperneck 22.1718 18.6066 -8.31179
head 9.80198 7.57483 -0.14496
rclavicle -1.53188e-014 1.90833e-014
rhumerus -5.4598 2.59038 -58.5493
rradius 97.7817
rwrist -36.1514
rhand -11.8808 26.4793
rfingers 7.12502
rthumb 14.1719 -3.01729
lclavicle -1.53188e-014 1.90833e-014
lhumerus 2.46426 13.1575 80.9451
lradius 72.1393
lwrist 30.3825
lhand 1.81515 31.7585
lfingers 7.12502
lthumb 27.3278 59.7977
rfemur -26.8247 -9.58286 15.233
rtibia 54.3878
rfoot -13.4936 -11.6888
rtoes 5.9635
lfemur -4.42841 -1.10652 -24.5817
ltibia 26.8493
lfoot -19.0299 2.30257
ltoes -7.00242
3
root 0.919722 17.4864 -6.37599 -1.56174 3.01357 1.858
lowerback 4.42921 1.58198 -6.73673
upperback 0.504051 1.76009 -0.850077
thorax -2.14122 0.931467 2.78579
lowerneck -13.3786 11.5745 -2.28683
upperneck 22.4061 18.9836 -8.26461
head 9.99815 7.72335 -0.0551992
rclavicle 2.89604e-014 1.63003e-014
rhumerus -4.76249 0.382389 -56.2824
rradius 97.3998
rwrist -37.3156
rhand -12.506 26.5737
rfingers 7.12502
rthumb 13.5693 -2.96416
lclavicle 2.89604e-014 1.63003e-014
lhumerus 4.0381 14.4292 80.3401
lradius 70.7486
lwrist 32.343
lhand 2.01368 31.7054
lfingers 7.12502
lthumb 27.5177 59.7145
rfemur -26.8681 -9.37404 15.8567
rtibia 52.0729
rfoot -13.4531 -12.3629
rtoes 4.8849
lfemur -3.54524 -0.853714 -24.0781
ltibia 26.44
lfoot -20.5475 1.37586
ltoes 6.29561
4
root 0.92202 17.5003 -6.23361 -1.72296 3.10722 0.703599
lowerback 4.50996 1.50761 -5.60947
upperback 0.467248 1.71729 -0.49824
thorax -2.19773 0.90436 2.52008
lowerneck -13.1029 11.8018 -2.16253
upperneck 22.2151 19.2285 -8.25933
head 9.89709 7.87357 -0.0619382
rclavicle -1.95057e-015 -3.97569e-016
rhumerus -4.4822 -2.1032 -54.0511
rradius 97.0557
rwrist -38.3543
rhand -12.5457 26.3761
rfingers 7.12502
rthumb 13.5311 -3.16428
lclavicle -1.95057e-015 -3.97569e-016
lhumerus 5.50612 15.5445 79.8846
lradius 69.398
lwrist 33.914
lhand 2.45026 32.1284
lfingers 7.12502
lthumb 27.9351 60.0703
rfemur -26.8034 -9.09733 17.3248
rtibia 49.7712
rfoot -13.3444 -12.9554
rtoes 4.03018
lfemur -2.62586 -0.603125 -22.724
ltibia 25.8265
lfoot -21.1113 0.690576
ltoes 10.2484
5
root 0.934592 17.5213 -6.10214 -1.42893 3.44686 0.734246
lowerback 4.41756 1.28025 -5.60624
upperback 0.280544 1.41407 -0.514056
thorax -2.31243 0.759754 2.52222
lowerneck -12.7652 12.065 -1.96173
upperneck 21.7722 19.4867 -8.34974
head 9.71439 8.04485 -0.120098
rclavicle 4.47266e-016 -3.18055e-015
rhumerus -4.00371 -4.43446 -52.0261
rradius 96.5128
rwrist -39.3722
rhand -12.1449 26.2131
rfingers 7.12502
rthumb 13.9174 -3.30113
lclavicle 4.47266e-016 -3.18055e-015
lhumerus 7.29138 16.9325 79.3415
lradius 67.5006
lwrist 34.6606
lhand 2.73865 32.7792
lfingers 7.12502
lthumb 28.2108 60.6759
rfemur -27.2669 -9.30393 17.4001
rtibia 47.3944
rfoot -12.8251 -13.0928
rtoes 3.51807
lfemur -2.23313 -0.640608 -22.8006
ltibia 25.2827
lfoot -20.0286 1.28246
ltoes -2.20247
6
root 0.941341 17.5316 -5.98276 -1.23954 3.49914 1.23496
lowerback 4.54658 1.19902 -6.11214
upperback 0.144823 1.26151 -0.679671
thorax -2.51999 0.696504 2.64045
lowerneck -12.5074 12.2907 -1.56112
upperneck 21.2732 19.679 -8.56215
head 9.56029 8.18651 -0.248198
rclavicle -4.14342e-015 2.90226e-014
rhumerus -3.41632 -6.77064 -50.1125
rradius 95.7221
rwrist -40.4665
rhand -12.2509 26.6304
rfingers 7.12502
rthumb 13.8152 -2.89081
lclavicle -4.14342e-015 2.90226e-014
lhumerus 9.24173 18.0414 78.7672
lradius 65.2163
lwrist 34.8354
lhand 2.56393 32.8553
lfingers 7.12502
lthumb 28.0438 60.7795
rfemur -27.7339 -9.01164 16.9688
rtibia 44.9952
rfoot -12.1299 -13.4244
rtoes 2.8737
lfemur -1.71469 -0.733505 -23.3725
ltibia 24.7596
lfoot -19.2857 2.07434
ltoes -13.7279
7
root 0.936008 17.5171 -5.85599 -1.16509 3.48985 1.52016
lowerback 4.5265 1.24359 -6.53001
upperback 0.208421 1.30218 -0.723004
thorax -2.45529 0.718044 2.82752
lowerneck -12.803 12.4291 -1.45618
upperneck 21.1995 19.8334 -8.47686
head 9.59411 8.26685 -0.195745
rclavicle -7.41715e-015 3.57812e-015
rhumerus -3.16891 -9.37102 -47.9186
rradius 94.9482
rwrist -41.6611
rhand -12.9141 27.8735
rfingers 7.12502
rthumb 13.176 -1.69012
lclavicle -7.41715e-015 3.57812e-015
lhumerus 11.5952 18.7025 78.4601
lradius 62.605
lwrist 34.6512
lhand 2.00368 32.5415
lfingers 7.12502
lthumb 27.5081 60.5522
rfemur -27.8712 -8.45545 16.8073
rtibia 42.6414
rfoot -11.8777 -13.6976
rtoes 3.52727
lfemur -0.945863 -0.825137 -23.6394
ltibia 24.0161
lfoot -19.2548 2.17802
ltoes -15.5595
8
root 0.936675 17.5082 -5.71387 -0.949189 3.75462 1.56282
lowerback 4.1445 1.13276 -6.70674
upperback 0.322152 1.18409 -0.630124
thorax -2.11694 0.64895 3.03871
lowerneck -13.1245 12.5491 -1.65116
upperneck 21.0879 20.0025 -8.33012
head 9.58281 8.34084 -0.0817121
rclavicle -1.23246e-014 -1.98785e-015
rhumerus -2.86973 -11.8073 -45.5855
rradius 94.0245
rwrist -42.7595
rhand -13.3853 28.7957
rfingers 7.12502
rthumb 12.7217 -0.796789
lclavicle -1.23246e-014 -1.98785e-015
lhumerus 13.8961 19.5165 78.2088
lradius 59.9873
lwrist 34.1995
lhand 1.87284 32.6114
lfingers 7.12502
lthumb 27.383 60.6419
rfemur -27.9644 -8.46096 16.8834
rtibia 40.197
rfoot -11.4777 -13.5504
rtoes 4.06068
lfemur -0.297017 -0.739929 -23.6257
ltibia 23.2304
lfoot -19.2967 1.89372
ltoes -15.2589
9
root 0.94699 17.5182 -5.56953 -0.844182 4.22077 1.85578
lowerback 4.09382 0.932435 -6.87879
upperback 0.262291 0.908161 -0.770883
thorax -2.12265 0.514088 3.00684
lowerneck -12.7376 12.8438 -1.52021
upperneck 20.6038 20.2581 -8.21572
head 9.34818 8.53384 -0.0740992
rclavicle -6.18717e-015 -9.93923e-015
rhumerus -2.5835 -14.0586 -43.5819
rradius 92.8771
rwrist -43.9547
rhand -12.2537 25.1281
rfingers 7.12502
rthumb 13.8125 -4.39328
lclavicle -6.18717e-015 -9.93923e-015
lhumerus 15.7071 20.407 77.6164
lradius 57.5453
lwrist 33.5506
lhand 2.18535 33.1329
lfingers 7.12502
lthumb 27.6818 61.1158
rfemur -27.9691 -8.91132 16.6165
rtibia 37.5757
rfoot -10.3085 -13.1957
rtoes 2.56641
lfemur 0.441496 -0.519473 -23.8845
ltibia 22.5868
lfoot -19.2702 1.39264
ltoes -14.9038
10
root 0.9535 17.5321 -5.43781 -0.682796 4.41917 1.90032
lowerback 4.3372 0.83491 -6.80433
upperback -0.0597053 0.744114 -0.877077
thorax -2.57415 0.452437 2.86024
lowerneck -12.496 13.2565 -1.37296
upperneck 20.5497 20.667 -7.74246
head 9.25453 8.80211 0.0847895
rclavicle -6.73383e-015 5.56597e-015
rhumerus -2.56804 -16.2162 -41.5947
rradius 91.6422
rwrist -45.224
rhand -11.2574 23.6281
rfingers 7.12502
rthumb 14.7725 -5.82548
lclavicle -6.73383e-015 5.56597e-015
lhumerus 17.4273 21.5319 77.2139
lradius 54.9014
lwrist 32.6186
lhand 2.49535 33.326
lfingers 7.12502
lthumb 27.9782 61.2609
rfemur -28.1068 -8.7868 16.6246
rtibia 34.8596
rfoot -8.87584 -12.9004
rtoes 1.5317
lfemur 1.14375 -0.40334 -23.909
ltibia 21.8143
lfoot -18.9573 1.14509
ltoes -13.8685
11
root 0.951575 17.5508 -5.31292 -0.336056 4.21163 1.44574
lowerback 4.17604 0.843369 -6.42261
upperback -0.225931 0.784588 -0.711323
thorax -2.65656 0.474824 2.81613
lowerneck -12.6145 13.5737 -1.41279
upperneck 20.3572 21.0454 -7.54514
head 9.19219 9.00569 0.200399
rclavicle -5.13734e-015 -1.19271e-014
rhumerus -2.25344 -18.629 -39.5804
rradius 90.2925
rwrist -46.4642
rhand -10.4808 23.3074
rfingers 7.12502
rthumb 15.5206 -6.0897
lclavicle -5.13734e-015 -1.19271e-014
lhumerus 17.9454 22.8659 77.2745
lradius 54.5439
lwrist 31.7746
lhand 2.46121 33.0831
lfingers 7.12502
lthumb 27.9456 61.0234
rfemur -28.4173 -7.65782 17.0693
rtibia 32.1474
rfoot -7.7612 -12.9786
rtoes 4.13746
lfemur 1.64104 -0.0904196 -23.3807
ltibia 20.9254
lfoot -18.7796 1.11633
ltoes -12.208
12
root 0.956159 17.5637 -5.17452 -0.0830497 4.31325 1.79277
lowerback 3.97045 0.762251 -6.76027
upperback -0.189533 0.676359 -0.794457
thorax -2.49621 0.419327 2.92847
lowerneck -12.3949 13.8684 -1.30555
upperneck 19.521 21.3453 -7.76192
head 8.91064 9.19668 0.109992
rclavicle -2.44132e-014 5.56597e-015
rhumerus -1.9683 -20.8641 -37.6017
rradius 88.9444
rwrist -48.1594
rhand -11.0887 23.4041
rfingers 7.12502
rthumb 14.935 -6.03742
lclavicle -2.44132e-014 5.56597e-015
lhumerus 18.9383 24.2968 77.5917
lradius 53.8559
lwrist 30.9023
lhand 2.8811 34.0732
lfingers 7.12502
lthumb 28.3469 61.9474
rfemur -28.4423 -6.88551 16.4294
rtibia 29.4688
rfoot -7.04859 -13.0051
rtoes 7.50424
lfemur 2.23529 0.294923 -23.7153
ltibia 20.2878
lfoot -18.9508 0.904734
ltoes -11.8978
13
root 0.962939 17.5541 -5.031 0.236132 4.64997 2.50778
lowerback 3.99708 0.631555 -7.42299
upperback -0.40366 0.453804 -0.956627
thorax -2.71668 0.328914 3.14348
lowerneck -11.6849 14.1224 -1.15281
upperneck 18.6777 21.582 -8.07934
head 8.5594 9.37435 -0.0638697
rclavicle 1.35049e-014 1.27222e-014
rhumerus -1.8411 -22.2958 -35.3876
rradius 87.3593
rwrist -49.6391
rhand -13.2888 24.4668
rfingers 7.12502
rthumb 12.8148 -5.11986
lclavicle 1.35049e-014 1.27222e-014
lhumerus 19.8306 25.6781 78.0016
lradius 52.8922
lwrist 29.9909
lhand 3.03607 34.3936
lfingers 7.12502
lthumb 28.495 62.2431
rfemur -28.4319 -7.0288 15.6655
rtibia 26.8736
rfoot -5.92471 -12.3223
rtoes 6.05041
lfemur 2.7428 0.675761 -24.398
ltibia 19.7672
lfoot -19.0049 0.364676
ltoes -12.2034
14
root 0.961851 17.5372 -4.89528 0.541018 4.83848 2.58676
lowerback 4.07286 0.498352 -7.52344
upperback -0.691337 0.250451 -0.933164
thorax -3.0376 0.247851 3.23563
lowerneck -11.498 14.4038 -0.933397
upperneck 18.6637 21.9485 -8.16757
head 8.57074 9.56045 -0.087115
rclavicle -4.16827e-015 7.55382e-015
rhumerus -1.36575 -23.7537 -33.5242
rradius 85.5175
rwrist -50.5741
rhand -13.908 26.2811
rfingers 7.12502
rthumb 12.2178 -3.34207
lclavicle -4.16827e-015 7.55382e-015
lhumerus 20.5883 27.0865 78.2885
lradius 52.0381
lwrist 29.162
lhand 2.81006 35.3974
lfingers 7.12502
lthumb 28.279 63.2829
rfemur -28.3905 -7.35476 15.9331
rtibia 24.4502
rfoot -4.93248 -11.2687
rtoes 2.30966
lfemur 3.21717 0.960947 -24.3506
ltibia 19.1515
lfoot -18.7971 -0.161463
ltoes -10.8904
15
root 0.966834 17.5317 -4.76091 0.568602 5.13198 2.55397
lowerback 4.30697 0.286926 -7.42482
upperback -0.755525 -0.0515769 -0.963898
thorax -3.20246 0.103011 3.16887
lowerneck -11.9432 14.797 -0.939917
upperneck 18.9382 22.4537 -7.71782
head 8.7026 9.80429 0.156804
rclavicle 3.09359e-015 1.11319e-014
rhumerus -0.92867 -25.6477 -32.0039
rradius 83.8268
rwrist -51.7709
rhand -13.9248 23.3774
rfingers 7.12502
rthumb 12.2016 -6.24669
lclavicle 3.09359e-015 1.11319e-014
lhumerus 21.6431 28.6257 78.5449
lradius 51.1759
lwrist 28.3204
lhand 2.93944 36.5184
lfingers 7.12502
lthumb 28.4027 64.3833
rfemur -28.0277 -7.4963 16.0701
rtibia 22.139
rfoot -4.87198 -10.469
rtoes 1.71032
lfemur 3.94736 0.7184 -24.2957
ltibia 18.6244
lfoot -18.5496 -0.370727
ltoes -8.17039
